<svg width="354.24830322265626px" height="120.8px" xmlns="http://www.w3.org/2000/svg" viewBox="72.87584838867187 14.600000000000001 354.24830322265626 120.8" style="background:#f2eddb" preserveAspectRatio="xMidYMid"><defs><filter id="editing-vintage" x="-100%" y="-100%" width="300%" height="300%"><feConvolveMatrix in="SourceGraphic" result="extrude" order="9,9" divisor="1" kernelMatrix="1,0,0,0,0,0,0,0,0,0,1,0,0,0,0,0,0,0,0,0,1,0,0,0,0,0,0,0,0,0,1,0,0,0,0,0,0,0,0,0,1,0,0,0,0,0,0,0,0,0,1,0,0,0,0,0,0,0,0,0,1,0,0,0,0,0,0,0,0,0,1,0,0,0,0,0,0,0,0,0,1"> </feConvolveMatrix><feFlood flood-color="#900" result="flood-extrude"></feFlood><feComposite operator="in" in="flood-extrude" in2="extrude" result="extrude-color"></feComposite><feOffset dx="5" dy="5" in="extrude-color" result="extrude-offset"></feOffset><feColorMatrix in="SourceGraphic" result="stroke" type="matrix" values="0 0 0 0 0 0 0 0 0 0 0 0 0 0 0 0 1 0 0 0 "></feColorMatrix><feColorMatrix in="SourceGraphic" result="fill" type="matrix" values="0 0 0 0 0 0 0 0 0 0 0 0 0 0 0 1 0 0 1 0 "></feColorMatrix><feConvolveMatrix in="stroke" result="inner-shadow" order="5,5" divisor="1" kernelMatrix="1 0 0 0 0 0 1 0 0 0 0 0 1 0 0 0 0 0 1 0 0 0 0 0 1 "></feConvolveMatrix><feOffset dx="1" dy="1" in="inner-shadow" result="offset"></feOffset><feComposite operator="in" in="offset" in2="SourceAlpha" result="comp"></feComposite><feFlood flood-color="#000" result="flood3"></feFlood><feComposite operator="in" in="flood3" in2="comp" result="comp2"></feComposite><feColorMatrix in="comp2" result="comp3" type="matrix" values="1 0 0 0 0 0 1 0 0 0 0 0 1 0 0 0 0 0 0.5 0 "></feColorMatrix><feFlood flood-color="#f00" result="flood1"></feFlood><feComposite operator="in" in="flood1" in2="fill" result="fill2"></feComposite><feFlood flood-color="#fff" result="flood2"></feFlood><feComposite operator="in" in="flood2" in2="stroke" result="stroke2"></feComposite><feMerge result="obj"><feMergeNode in="extrude-offset"></feMergeNode><feMergeNode in="fill2"></feMergeNode><feMergeNode in="comp3"></feMergeNode></feMerge><feConvolveMatrix in="SourceAlpha" result="shadow" order="9,9" divisor="1" kernelMatrix="1,0,0,0,0,0,0,0,0,0,1,0,0,0,0,0,0,0,0,0,1,0,0,0,0,0,0,0,0,0,1,0,0,0,0,0,0,0,0,0,1,0,0,0,0,0,0,0,0,0,1,0,0,0,0,0,0,0,0,0,1,0,0,0,0,0,0,0,0,0,1,0,0,0,0,0,0,0,0,0,1"></feConvolveMatrix><feOffset dx="15" dy="15" in="shadow" result="shadow-offset"></feOffset><feFlood flood-color="#444" result="flood-shadow"></feFlood><feComposite operator="in" in="flood-shadow" in2="shadow-offset" result="shadow-color"></feComposite><feMerge><feMergeNode in="shadow-color"></feMergeNode><feMergeNode in="obj"></feMergeNode></feMerge></filter></defs><g transform="translate(-9,-9)"><g filter="url(#editing-vintage)"><g transform="translate(125.59590768814087, 98.68000030517578)"><path d="M6.21-31.17L6.21-31.17L6.21-31.17Q4.03-32.83 4.03-36.38L4.03-36.38L4.03-36.38Q4.03-39.94 6.37-41.79L6.37-41.79L6.37-41.79Q8.70-43.65 12.74-43.65L12.74-43.65L12.74-43.65Q15.30-43.65 21.38-42.75L21.38-42.75L25.73-42.11L25.73-42.11Q27.90-41.86 30.18-41.86L30.18-41.86L30.18-41.86Q32.45-41.86 33.98-42.82L33.98-42.82L33.98-42.82Q36.29-40.77 36.29-37.82L36.29-37.82L36.29-37.82Q36.29-34.88 33.66-32.77L33.66-32.77L33.66-32.77Q30.98-30.53 27.52-30.53L27.52-30.53L27.52-30.53Q25.86-30.53 23.17-30.98L23.17-30.98L23.17-30.98Q20.03-21.12 20.03-14.27L20.03-14.27L20.03-14.27Q20.03-7.42 23.49-3.84L23.49-3.84L23.49-3.84Q21.89-0.96 19.52 0.16L19.52 0.16L19.52 0.16Q17.15 1.28 13.60 1.28L13.60 1.28L13.60 1.28Q10.05 1.28 7.84-0.67L7.84-0.67L7.84-0.67Q5.63-2.62 5.63-6.66L5.63-6.66L5.63-6.66Q5.63-11.33 8.19-19.01L8.19-19.01L8.19-19.01Q10.75-26.62 14.59-32.45L14.59-32.45L14.59-32.45Q12.74-32.64 10.82-32.64L10.82-32.64L10.82-32.64Q6.85-32.64 6.21-31.17ZM53.89-17.98L53.89-17.98L53.89-17.98Q56.19-22.08 56.19-26.24L56.19-26.24L56.19-26.24Q56.19-28.99 54.21-28.99L54.21-28.99L54.21-28.99Q52.67-28.99 51.07-26.37L51.07-26.37L51.07-26.37Q49.41-23.74 48.90-20.35L48.90-20.35L45.57 0L32.32 1.28L38.85-32.64L49.41-33.92L48.26-27.46L48.26-27.46Q51.39-33.92 58.43-33.92L58.43-33.92L58.43-33.92Q62.14-33.92 64.16-32L64.16-32L64.16-32Q66.18-30.08 66.18-26.14L66.18-26.14L66.18-26.14Q66.18-22.21 63.58-19.71L63.58-19.71L63.58-19.71Q60.99-17.22 56.58-17.22L56.58-17.22L56.58-17.22Q54.66-17.22 53.89-17.98ZM69.98-1.92L69.98-1.92L69.98-1.92Q68.48-3.58 67.81-6.21L67.81-6.21L67.81-6.21Q67.14-8.83 67.14-13.12L67.14-13.12L67.14-13.12Q67.14-17.41 68.61-21.31L68.61-21.31L68.61-21.31Q70.08-25.22 72.77-28.03L72.77-28.03L72.77-28.03Q78.27-33.92 87.36-33.92L87.36-33.92L87.36-33.92Q90.62-33.92 92.99-32.83L92.99-32.83L103.94-33.92L99.20-8.96L99.20-8.96Q99.01-8.19 99.01-6.78L99.01-6.78L99.01-6.78Q99.01-5.38 99.87-4.48L99.87-4.48L99.87-4.48Q100.74-3.58 102.02-3.46L102.02-3.46L102.02-3.46Q101.38-1.28 99.04 0L99.04 0L99.04 0Q96.70 1.28 94.08 1.28L94.08 1.28L94.08 1.28Q91.46 1.28 89.70 0.29L89.70 0.29L89.70 0.29Q87.94-0.70 87.42-2.37L87.42-2.37L87.42-2.37Q86.40-0.77 84.22 0.26L84.22 0.26L84.22 0.26Q82.05 1.28 79.14 1.28L79.14 1.28L79.14 1.28Q76.22 1.28 73.86 0.51L73.86 0.51L73.86 0.51Q71.49-0.26 69.98-1.92ZM83.49-27.90L83.49-27.90L83.49-27.90Q82.75-26.75 82.11-24.80L82.11-24.80L82.11-24.80Q81.47-22.85 80.42-17.63L80.42-17.63L80.42-17.63Q79.36-12.42 79.36-8.70L79.36-8.70L79.36-8.70Q79.36-4.99 79.94-3.90L79.94-3.90L79.94-3.90Q80.51-2.82 81.54-2.82L81.54-2.82L81.54-2.82Q83.58-2.82 85.09-4.77L85.09-4.77L85.09-4.77Q86.59-6.72 87.17-10.18L87.17-10.18L90.56-28.93L90.56-28.93Q89.22-30.08 87.65-30.08L87.65-30.08L87.65-30.08Q86.08-30.08 85.15-29.57L85.15-29.57L85.15-29.57Q84.22-29.06 83.49-27.90ZM138.56-26.62L138.56-26.62L138.56-26.62Q138.56-23.94 136.32-22.27L136.32-22.27L136.32-22.27Q134.08-20.61 130.43-20.61L130.43-20.61L130.43-20.61Q128.90-20.61 128-21.06L128-21.06L128-21.06Q128.70-22.72 128.93-24.80L128.93-24.80L128.93-24.80Q129.15-26.88 129.15-27.46L129.15-27.46L129.15-27.46Q129.15-30.14 127.30-30.14L127.30-30.14L127.30-30.14Q126.02-30.14 124.58-28.54L124.58-28.54L124.58-28.54Q123.14-26.94 121.92-24.45L121.92-24.45L121.92-24.45Q119.23-18.69 119.23-12.86L119.23-12.86L119.23-12.86Q119.23-9.66 120.45-8.22L120.45-8.22L120.45-8.22Q121.66-6.78 124.35-6.78L124.35-6.78L124.35-6.78Q128.06-6.78 131.01-9.86L131.01-9.86L131.01-9.86Q131.84-10.82 132.29-11.90L132.29-11.90L132.29-11.90Q134.72-10.62 134.72-7.10L134.72-7.10L134.72-7.10Q134.72-3.52 130.75-1.15L130.75-1.15L130.75-1.15Q126.66 1.28 120.13 1.28L120.13 1.28L120.13 1.28Q107.14 1.28 107.14-12.48L107.14-12.48L107.14-12.48Q107.14-22.53 112.83-28.29L112.83-28.29L112.83-28.29Q118.34-33.92 128.45-33.92L128.45-33.92L128.45-33.92Q138.56-33.92 138.56-26.62ZM156.80-30.34L156.80-30.34L156.80-30.34Q160.26-33.92 167.55-33.92L167.55-33.92L167.55-33.92Q171.58-33.92 173.79-31.78L173.79-31.78L173.79-31.78Q176-29.63 176-25.70L176-25.70L176-25.70Q176-21.76 173.79-18.98L173.79-18.98L173.79-18.98Q171.58-16.19 167.49-15.04L167.49-15.04L167.49-15.04Q167.81-13.76 168.26-12.42L168.26-12.42L169.15-9.86L169.15-9.86Q170.37-6.59 171.33-5.44L171.33-5.44L171.33-5.44Q172.29-4.29 173.57-3.90L173.57-3.90L173.57-3.90Q172.86-1.28 170.30 0.13L170.30 0.13L170.30 0.13Q168.26 1.28 165.44 1.28L165.44 1.28L165.44 1.28Q157.18 1.28 156.10-11.46L156.10-11.46L156.10-11.46Q155.90-13.25 155.90-15.04L155.90-15.04L155.90-15.04Q159.10-15.94 161.34-18.94L161.34-18.94L161.34-18.94Q163.58-21.95 163.58-25.47L163.58-25.47L163.58-25.47Q163.58-28.99 161.09-28.99L161.09-28.99L161.09-28.99Q159.30-28.99 157.89-27.01L157.89-27.01L157.89-27.01Q156.48-25.02 155.84-21.63L155.84-21.63L151.62 0L138.69 1.28L147.65-44.80L160.51-46.08L159.04-38.46L159.04-38.46Q158.08-33.09 156.80-30.34ZM204.86-10.82L204.86-10.82L204.86-10.82Q206.46-9.73 206.46-7.33L206.46-7.33L206.46-7.33Q206.46-4.93 205.25-3.39L205.25-3.39L205.25-3.39Q204.03-1.86 202.05-0.83L202.05-0.83L202.05-0.83Q197.95 1.28 193.54 1.28L193.54 1.28L193.54 1.28Q189.12 1.28 186.53 0.32L186.53 0.32L186.53 0.32Q183.94-0.64 182.21-2.43L182.21-2.43L182.21-2.43Q178.82-5.82 178.82-12.03L178.82-12.03L178.82-12.03Q178.82-21.70 184.06-27.58L184.06-27.58L184.06-27.58Q189.70-33.92 199.49-33.92L199.49-33.92L199.49-33.92Q205.57-33.92 208.58-31.36L208.58-31.36L208.58-31.36Q210.82-29.44 210.82-26.30L210.82-26.30L210.82-26.30Q210.82-15.04 191.36-15.04L191.36-15.04L191.36-15.04Q191.10-13.38 191.10-11.97L191.10-11.97L191.10-11.97Q191.10-9.02 192.42-7.90L192.42-7.90L192.42-7.90Q193.73-6.78 196.16-6.78L196.16-6.78L196.16-6.78Q198.59-6.78 201.18-7.90L201.18-7.90L201.18-7.90Q203.78-9.02 204.86-10.82ZM191.81-17.79L191.81-17.79L191.81-17.79Q196.35-17.79 198.98-20.61L198.98-20.61L198.98-20.61Q201.60-23.30 201.60-27.58L201.60-27.58L201.60-27.58Q201.60-29.06 201.06-29.86L201.06-29.86L201.06-29.86Q200.51-30.66 199.42-30.66L199.42-30.66L199.42-30.66Q198.34-30.66 197.41-30.24L197.41-30.24L197.41-30.24Q196.48-29.82 195.52-28.42L195.52-28.42L195.52-28.42Q193.15-25.22 191.81-17.79ZM233.02-17.98L233.02-17.98L233.02-17.98Q235.33-22.08 235.33-26.24L235.33-26.24L235.33-26.24Q235.33-28.99 233.34-28.99L233.34-28.99L233.34-28.99Q231.81-28.99 230.21-26.37L230.21-26.37L230.21-26.37Q228.54-23.74 228.03-20.35L228.03-20.35L224.70 0L211.46 1.28L217.98-32.64L228.54-33.92L227.39-27.46L227.39-27.46Q230.53-33.92 237.57-33.92L237.57-33.92L237.57-33.92Q241.28-33.92 243.30-32L243.30-32L243.30-32Q245.31-30.08 245.31-26.14L245.31-26.14L245.31-26.14Q245.31-22.21 242.72-19.71L242.72-19.71L242.72-19.71Q240.13-17.22 235.71-17.22L235.71-17.22L235.71-17.22Q233.79-17.22 233.02-17.98Z" fill="#f00" stroke="#0f0" stroke-width="1.8"></path></g></g><g><g transform="translate(125.8562684059143, 98.67999267578125)"><path d="M6.21-31.17L6.21-31.17L6.21-31.17Q4.03-32.83 4.03-36.38L4.03-36.38L4.03-36.38Q4.03-39.94 6.37-41.79L6.37-41.79L6.37-41.79Q8.70-43.65 12.74-43.65L12.74-43.65L12.74-43.65Q15.30-43.65 21.38-42.75L21.38-42.75L25.73-42.11L25.73-42.11Q27.90-41.86 30.18-41.86L30.18-41.86L30.18-41.86Q32.45-41.86 33.98-42.82L33.98-42.82L33.98-42.82Q36.29-40.77 36.29-37.82L36.29-37.82L36.29-37.82Q36.29-34.88 33.66-32.77L33.66-32.77L33.66-32.77Q30.98-30.53 27.52-30.53L27.52-30.53L27.52-30.53Q25.86-30.53 23.17-30.98L23.17-30.98L23.17-30.98Q20.03-21.12 20.03-14.27L20.03-14.27L20.03-14.27Q20.03-7.42 23.49-3.84L23.49-3.84L23.49-3.84Q21.89-0.96 19.52 0.16L19.52 0.16L19.52 0.16Q17.15 1.28 13.60 1.28L13.60 1.28L13.60 1.28Q10.05 1.28 7.84-0.67L7.84-0.67L7.84-0.67Q5.63-2.62 5.63-6.66L5.63-6.66L5.63-6.66Q5.63-11.33 8.19-19.01L8.19-19.01L8.19-19.01Q10.75-26.62 14.59-32.45L14.59-32.45L14.59-32.45Q12.74-32.64 10.82-32.64L10.82-32.64L10.82-32.64Q6.85-32.64 6.21-31.17ZM53.89-17.98L53.89-17.98L53.89-17.98Q56.19-22.08 56.19-26.24L56.19-26.24L56.19-26.24Q56.19-28.99 54.21-28.99L54.21-28.99L54.21-28.99Q52.67-28.99 51.07-26.37L51.07-26.37L51.07-26.37Q49.41-23.74 48.90-20.35L48.90-20.35L45.57 0L32.32 1.28L38.85-32.64L49.41-33.92L48.26-27.46L48.26-27.46Q51.39-33.92 58.43-33.92L58.43-33.92L58.43-33.92Q62.14-33.92 64.16-32L64.16-32L64.16-32Q66.18-30.08 66.18-26.14L66.18-26.14L66.18-26.14Q66.18-22.21 63.58-19.71L63.58-19.71L63.58-19.71Q60.99-17.22 56.58-17.22L56.58-17.22L56.58-17.22Q54.66-17.22 53.89-17.98ZM69.98-1.92L69.98-1.92L69.98-1.92Q68.48-3.58 67.81-6.21L67.81-6.21L67.81-6.21Q67.14-8.83 67.14-13.12L67.14-13.12L67.14-13.12Q67.14-17.41 68.61-21.31L68.61-21.31L68.61-21.31Q70.08-25.22 72.77-28.03L72.77-28.03L72.77-28.03Q78.27-33.92 87.36-33.92L87.36-33.92L87.36-33.92Q90.62-33.92 92.99-32.83L92.99-32.83L103.94-33.92L99.20-8.96L99.20-8.96Q99.01-8.19 99.01-6.78L99.01-6.78L99.01-6.78Q99.01-5.38 99.87-4.48L99.87-4.48L99.87-4.48Q100.74-3.58 102.02-3.46L102.02-3.46L102.02-3.46Q101.38-1.28 99.04 0L99.04 0L99.04 0Q96.70 1.28 94.08 1.28L94.08 1.28L94.08 1.28Q91.46 1.28 89.70 0.29L89.70 0.29L89.70 0.29Q87.94-0.70 87.42-2.37L87.42-2.37L87.42-2.37Q86.40-0.77 84.22 0.26L84.22 0.26L84.22 0.26Q82.05 1.28 79.14 1.28L79.14 1.28L79.14 1.28Q76.22 1.28 73.86 0.51L73.86 0.51L73.86 0.51Q71.49-0.26 69.98-1.92ZM83.49-27.90L83.49-27.90L83.49-27.90Q82.75-26.75 82.11-24.80L82.11-24.80L82.11-24.80Q81.47-22.85 80.42-17.63L80.42-17.63L80.42-17.63Q79.36-12.42 79.36-8.70L79.36-8.70L79.36-8.70Q79.36-4.99 79.94-3.90L79.94-3.90L79.94-3.90Q80.51-2.82 81.54-2.82L81.54-2.82L81.54-2.82Q83.58-2.82 85.09-4.77L85.09-4.77L85.09-4.77Q86.59-6.72 87.17-10.18L87.17-10.18L90.56-28.93L90.56-28.93Q89.22-30.08 87.65-30.08L87.65-30.08L87.65-30.08Q86.08-30.08 85.15-29.57L85.15-29.57L85.15-29.57Q84.22-29.06 83.49-27.90ZM138.56-26.62L138.56-26.62L138.56-26.62Q138.56-23.94 136.32-22.27L136.32-22.27L136.32-22.27Q134.08-20.61 130.43-20.61L130.43-20.61L130.43-20.61Q128.90-20.61 128-21.06L128-21.06L128-21.06Q128.70-22.72 128.93-24.80L128.93-24.80L128.93-24.80Q129.15-26.88 129.15-27.46L129.15-27.46L129.15-27.46Q129.15-30.14 127.30-30.14L127.30-30.14L127.30-30.14Q126.02-30.14 124.58-28.54L124.58-28.54L124.58-28.54Q123.14-26.94 121.92-24.45L121.92-24.45L121.92-24.45Q119.23-18.69 119.23-12.86L119.23-12.86L119.23-12.86Q119.23-9.66 120.45-8.22L120.45-8.22L120.45-8.22Q121.66-6.78 124.35-6.78L124.35-6.78L124.35-6.78Q128.06-6.78 131.01-9.86L131.01-9.86L131.01-9.86Q131.84-10.82 132.29-11.90L132.29-11.90L132.29-11.90Q134.72-10.62 134.72-7.10L134.72-7.10L134.72-7.10Q134.72-3.52 130.75-1.15L130.75-1.15L130.75-1.15Q126.66 1.28 120.13 1.28L120.13 1.28L120.13 1.28Q107.14 1.28 107.14-12.48L107.14-12.48L107.14-12.48Q107.14-22.53 112.83-28.29L112.83-28.29L112.83-28.29Q118.34-33.92 128.45-33.92L128.45-33.92L128.45-33.92Q138.56-33.92 138.56-26.62ZM156.80-30.34L156.80-30.34L156.80-30.34Q160.26-33.92 167.55-33.92L167.55-33.92L167.55-33.92Q171.58-33.92 173.79-31.78L173.79-31.78L173.79-31.78Q176-29.63 176-25.70L176-25.70L176-25.70Q176-21.76 173.79-18.98L173.79-18.98L173.79-18.98Q171.58-16.19 167.49-15.04L167.49-15.04L167.49-15.04Q167.81-13.76 168.26-12.42L168.26-12.42L169.15-9.86L169.15-9.86Q170.37-6.59 171.33-5.44L171.33-5.44L171.33-5.44Q172.29-4.29 173.57-3.90L173.57-3.90L173.57-3.90Q172.86-1.28 170.30 0.13L170.30 0.13L170.30 0.13Q168.26 1.28 165.44 1.28L165.44 1.28L165.44 1.28Q157.18 1.28 156.10-11.46L156.10-11.46L156.10-11.46Q155.90-13.25 155.90-15.04L155.90-15.04L155.90-15.04Q159.10-15.94 161.34-18.94L161.34-18.94L161.34-18.94Q163.58-21.95 163.58-25.47L163.58-25.47L163.58-25.47Q163.58-28.99 161.09-28.99L161.09-28.99L161.09-28.99Q159.30-28.99 157.89-27.01L157.89-27.01L157.89-27.01Q156.48-25.02 155.84-21.63L155.84-21.63L151.62 0L138.69 1.28L147.65-44.80L160.51-46.08L159.04-38.46L159.04-38.46Q158.08-33.09 156.80-30.34ZM204.86-10.82L204.86-10.82L204.86-10.82Q206.46-9.73 206.46-7.33L206.46-7.33L206.46-7.33Q206.46-4.93 205.25-3.39L205.25-3.39L205.25-3.39Q204.03-1.86 202.05-0.83L202.05-0.83L202.05-0.83Q197.95 1.28 193.54 1.28L193.54 1.28L193.54 1.28Q189.12 1.28 186.53 0.32L186.53 0.32L186.53 0.32Q183.94-0.64 182.21-2.43L182.21-2.43L182.21-2.43Q178.82-5.82 178.82-12.03L178.82-12.03L178.82-12.03Q178.82-21.70 184.06-27.58L184.06-27.58L184.06-27.58Q189.70-33.92 199.49-33.92L199.49-33.92L199.49-33.92Q205.57-33.92 208.58-31.36L208.58-31.36L208.58-31.36Q210.82-29.44 210.82-26.30L210.82-26.30L210.82-26.30Q210.82-15.04 191.36-15.04L191.36-15.04L191.36-15.04Q191.10-13.38 191.10-11.97L191.10-11.97L191.10-11.97Q191.10-9.02 192.42-7.90L192.42-7.90L192.42-7.90Q193.73-6.78 196.16-6.78L196.16-6.78L196.16-6.78Q198.59-6.78 201.18-7.90L201.18-7.90L201.18-7.90Q203.78-9.02 204.86-10.82ZM191.81-17.79L191.81-17.79L191.81-17.79Q196.35-17.79 198.98-20.61L198.98-20.61L198.98-20.61Q201.60-23.30 201.60-27.58L201.60-27.58L201.60-27.58Q201.60-29.06 201.06-29.86L201.06-29.86L201.06-29.86Q200.51-30.66 199.42-30.66L199.42-30.66L199.42-30.66Q198.34-30.66 197.41-30.24L197.41-30.24L197.41-30.24Q196.48-29.82 195.52-28.42L195.52-28.42L195.52-28.42Q193.15-25.22 191.81-17.79ZM233.02-17.98L233.02-17.98L233.02-17.98Q235.33-22.08 235.33-26.24L235.33-26.24L235.33-26.24Q235.33-28.99 233.34-28.99L233.34-28.99L233.34-28.99Q231.81-28.99 230.21-26.37L230.21-26.37L230.21-26.37Q228.54-23.74 228.03-20.35L228.03-20.35L224.70 0L211.46 1.28L217.98-32.64L228.54-33.92L227.39-27.46L227.39-27.46Q230.53-33.92 237.57-33.92L237.57-33.92L237.57-33.92Q241.28-33.92 243.30-32L243.30-32L243.30-32Q245.31-30.08 245.31-26.14L245.31-26.14L245.31-26.14Q245.31-22.21 242.72-19.71L242.72-19.71L242.72-19.71Q240.13-17.22 235.71-17.22L235.71-17.22L235.71-17.22Q233.79-17.22 233.02-17.98Z" fill="none" stroke="#fff" stroke-width="2.1"></path></g></g></g><style>text {
  font-size: 64px;
  font-family: Arial Black;
  dominant-baseline: central;
  text-anchor: middle;
}</style></svg>